<?xml version="1.0" encoding="UTF-8"?>
<svg version="1.1" xmlns="http://www.w3.org/2000/svg" width="50" height="50">
<path d="M0 0 C16.5 0 33 0 50 0 C50 16.5 50 33 50 50 C33.5 50 17 50 0 50 C0 33.5 0 17 0 0 Z " fill="#FDFDFD" transform="translate(0,0)"/>
<path d="M0 0 C16.5 0 33 0 50 0 C50 16.5 50 33 50 50 C33.5 50 17 50 0 50 C0 33.5 0 17 0 0 Z M16 4 C15.83312552 6.58354218 15.83312552 6.58354218 16 9 C14.87851562 8.93039062 14.87851562 8.93039062 13.734375 8.859375 C12.74953125 8.82328125 11.7646875 8.7871875 10.75 8.75 C9.77546875 8.70359375 8.8009375 8.6571875 7.796875 8.609375 C4.94940674 8.78887625 4.94940674 8.78887625 2.84960938 10.52148438 C0.30144245 13.93608186 0.49556241 16.95768734 0.609375 21.046875 C0.61340332 21.73088379 0.61743164 22.41489258 0.62158203 23.11962891 C0.64243691 25.66336063 0.6982829 28.20670856 0.75 30.75 C0.8325 36.4425 0.915 42.135 1 48 C16.84 48 32.68 48 49 48 C49.103125 42.3075 49.20625 36.615 49.3125 30.75 C49.35802002 28.95916992 49.40354004 27.16833984 49.45043945 25.32324219 C49.46504757 23.8978055 49.47778749 22.47234791 49.48828125 21.046875 C49.51386108 20.31162598 49.53944092 19.57637695 49.5657959 18.81884766 C49.56907603 14.96403927 49.34197539 13.35865023 46.63671875 10.52148438 C43.67186625 8.81065467 42.07270087 8.56945595 38.6875 8.75 C37.36298828 8.80414063 37.36298828 8.80414063 36.01171875 8.859375 C35.01591797 8.92898438 35.01591797 8.92898438 34 9 C34.04125 8.21625 34.0825 7.4325 34.125 6.625 C34.28728734 3.83883881 34.28728734 3.83883881 32 2 C28.71235985 1.67942129 28.71235985 1.67942129 25 1.75 C23.1128125 1.74226562 23.1128125 1.74226562 21.1875 1.734375 C17.90717639 1.66219545 17.90717639 1.66219545 16 4 Z " fill="#151414" transform="translate(0,0)"/>
<path d="M0 0 C2 2 2 2 2.25 5.375 C2.01888242 8.72620493 1.60803638 10.18593634 0 13 C0 13.99 0 14.98 0 16 C1.98075027 17.36176581 3.98079663 18.69593116 6 20 C6 20.66 6 21.32 6 22 C-0.6 22 -7.2 22 -14 22 C-11.75 17.5 -11.75 17.5 -8 16 C-8.65585189 12.39007621 -8.65585189 12.39007621 -10 9 C-10.44778928 2.84289746 -10.44778928 2.84289746 -8.9375 0 C-5.80557344 -1.61647822 -3.32814714 -0.78665296 0 0 Z " fill="#1B1A1A" transform="translate(29,18)"/>
<path d="M0 0 C3.96 0 7.92 0 12 0 C12.33 1.65 12.66 3.3 13 5 C8.38 5 3.76 5 -1 5 C-0.67 3.35 -0.34 1.7 0 0 Z " fill="#151414" transform="translate(19,4)"/>
<path d="M0 0 C1.93166016 0.01740234 1.93166016 0.01740234 3.90234375 0.03515625 C5.19269531 0.04417969 6.48304687 0.05320313 7.8125 0.0625 C8.81152344 0.07410156 9.81054688 0.08570312 10.83984375 0.09765625 C10.83984375 1.08765625 10.83984375 2.07765625 10.83984375 3.09765625 C9.93621094 3.07445312 9.03257813 3.05125 8.1015625 3.02734375 C6.92207031 3.00929688 5.74257813 2.99125 4.52734375 2.97265625 C3.35558594 2.94945312 2.18382812 2.92625 0.9765625 2.90234375 C-2.32409286 2.84445007 -2.32409286 2.84445007 -5.16015625 5.09765625 C-4.03724427 0.12476033 -4.03724427 0.12476033 0 0 Z " fill="#F3F3F3" transform="translate(21.16015625,1.90234375)"/>
</svg>
